<svg width="20" height="21" viewBox="0 0 20 21" fill="none" xmlns="http://www.w3.org/2000/svg">
<path d="M14.1667 2.99993C14.3856 2.78106 14.6454 2.60744 14.9314 2.48899C15.2173 2.37054 15.5238 2.30957 15.8334 2.30957C16.1429 2.30957 16.4494 2.37054 16.7353 2.48899C17.0213 2.60744 17.2812 2.78106 17.5 2.99993C17.7189 3.2188 17.8925 3.47863 18.011 3.7646C18.1294 4.05057 18.1904 4.35706 18.1904 4.66659C18.1904 4.97612 18.1294 5.28262 18.011 5.56859C17.8925 5.85455 17.7189 6.11439 17.5 6.33326L6.25002 17.5833L1.66669 18.8333L2.91669 14.2499L14.1667 2.99993Z" stroke="#667085" stroke-width="1.66667" stroke-linecap="round" stroke-linejoin="round"/>
</svg>
