<svg width="41" height="39" viewBox="0 0 41 39" fill="none" xmlns="http://www.w3.org/2000/svg">
<path d="M37.1422 21.2974C34.8452 20.5057 32.2971 20.6817 30.1426 21.779L26.6304 23.2818C26.3467 21.7432 25.1043 20.5869 23.5709 20.5425C23.5619 20.5422 18.3049 20.4858 18.3049 20.4858C14.0971 19.3879 11.3631 20.7987 9.80342 22.189C9.48445 22.4733 9.20393 22.7661 8.95705 23.0548C8.53619 22.6237 7.79328 22.5085 7.25152 22.7918L2.47949 25.287C1.86055 25.6107 1.59124 26.3207 1.85082 26.9449L6.51449 38.1593C6.82094 38.8961 7.76271 39.2217 8.49756 38.8375L13.2696 36.3423C13.7169 36.1084 13.9803 35.6726 13.9947 35.2133H21.117C22.2787 35.2133 23.4257 34.9231 24.4339 34.3739C24.4339 34.3739 37.8289 27.0649 37.9045 26.9996C39.7804 25.3763 39.8382 22.2267 37.1422 21.2974C38.2177 21.6681 34.8452 20.5057 37.1422 21.2974ZM8.54022 35.7708L4.91645 27.057L7.2086 25.8586L10.8324 34.5723L8.54022 35.7708ZM36.1121 24.9378L23.0364 32.0606C22.4528 32.3785 21.789 32.5465 21.1167 32.5465H13.009L10.2867 26.0003C10.5199 25.5483 10.9792 24.7983 11.7252 24.1334C13.2529 22.7716 15.2667 22.4231 17.7108 23.0976C17.833 23.1313 17.9595 23.1491 18.0867 23.1505L23.4907 23.2083C23.6287 23.2197 23.8833 23.5114 23.8833 23.9538C23.8833 24.4091 23.6203 24.6994 23.4828 24.6994H18.1732V27.3662H23.4828C24.1405 27.3662 24.7527 27.1547 25.2622 26.7922L31.3421 24.1907C31.3743 24.1768 31.4059 24.162 31.4369 24.1459C32.8954 23.3916 34.6258 23.267 36.1841 23.8042C36.8008 24.0168 36.3553 24.703 36.1121 24.9378ZM27.6747 19.2153C22.1058 19.2153 17.5751 14.9053 17.5751 9.60758C17.5751 4.31 22.1057 0 27.6747 0C33.2437 0 37.7743 4.31 37.7743 9.60758C37.7743 14.9053 33.2436 19.2153 27.6747 19.2153ZM27.6747 2.66683C23.6542 2.66683 20.3833 5.78042 20.3833 9.60758C20.3833 13.4348 23.6542 16.5483 27.6747 16.5483C31.6953 16.5483 34.9662 13.4347 34.9662 9.60758C34.9662 5.7805 31.6952 2.66683 27.6747 2.66683Z" fill="#F5F5F5"/>
<path d="M28.3271 8.52071C27.2105 8.08455 27.1242 7.89713 27.1242 7.67988C27.1242 7.54113 27.1966 7.21855 27.8673 7.21855C28.4808 7.21855 29.2452 7.54613 29.7844 7.88371L30.5344 6.01371C29.9989 5.68946 29.3482 5.41088 28.7397 5.3218V4.10571H26.74V5.44013C25.5521 5.7963 24.82 6.69963 24.82 7.82413C24.82 9.31346 26.0726 9.97838 27.2961 10.4316C28.2737 10.8057 28.3556 11.092 28.3556 11.3311C28.3556 11.6989 27.9993 11.9365 27.4479 11.9365C26.7289 11.9365 25.8929 11.542 25.3076 11.1103L24.5859 13.0103C25.1827 13.4505 25.8736 13.741 26.6509 13.8494V15.1095H28.6631V13.7378C29.8882 13.3667 30.6722 12.4013 30.6722 11.247C30.6722 9.63113 29.419 8.9413 28.3271 8.52071Z" fill="#F5F5F5"/>
</svg>
