<svg width="65" height="49" viewBox="0 0 65 49" fill="none" xmlns="http://www.w3.org/2000/svg">
<path d="M23.6511 41.3626C21.687 41.3594 19.7682 40.9223 18.1366 40.1066C16.505 39.2908 15.2335 38.1329 14.4825 36.7787C13.7314 35.4246 13.5345 33.9348 13.9165 32.4973C14.2985 31.0598 15.2422 29.7388 16.6289 28.7009L33.4981 16.0985C34.0532 15.6843 34.7122 15.3557 35.4375 15.1315C36.1629 14.9074 36.9402 14.792 37.7253 14.792C38.5104 14.792 39.2878 14.9074 40.0131 15.1315C40.7384 15.3557 41.3974 15.6843 41.9526 16.0985C42.5077 16.5128 42.948 17.0045 43.2485 17.5457C43.5489 18.0869 43.7035 18.667 43.7035 19.2528C43.7035 19.8386 43.5489 20.4187 43.2485 20.9599C42.948 21.5011 42.5077 21.9929 41.9526 22.4071L25.0635 34.9946C24.8851 35.15 24.6657 35.2762 24.4189 35.3653C24.1721 35.4544 23.9032 35.5045 23.6293 35.5124C23.3553 35.5203 23.0821 35.4858 22.8268 35.4112C22.5716 35.3366 22.3397 35.2234 22.1459 35.0787C21.952 34.9341 21.8003 34.7611 21.7003 34.5706C21.6003 34.3801 21.5541 34.1762 21.5647 33.9718C21.5753 33.7674 21.6424 33.5668 21.7618 33.3826C21.8812 33.1985 22.0503 33.0347 22.2586 32.9017L39.1278 20.2993C39.4537 20.0153 39.624 19.6501 39.6046 19.2765C39.5853 18.9029 39.3777 18.5485 39.0235 18.2842C38.6692 18.0198 38.1942 17.8649 37.6936 17.8505C37.1929 17.8361 36.7034 17.9632 36.3229 18.2063L19.4338 30.7938C18.3126 31.6304 17.6828 32.765 17.6828 33.9481C17.6828 35.1312 18.3126 36.2659 19.4338 37.1024C20.5549 37.939 22.0755 38.409 23.661 38.409C25.2465 38.409 26.7671 37.939 27.8883 37.1024L44.7575 24.5001C46.5693 23.1003 47.5718 21.2255 47.5492 19.2795C47.5265 17.3335 46.4805 15.472 44.6363 14.096C42.7921 12.7199 40.2974 11.9393 37.6895 11.9224C35.0816 11.9055 32.5691 12.6536 30.6932 14.0056L20.8462 21.4274C20.4734 21.7039 19.9692 21.8591 19.4437 21.8591C18.9182 21.8591 18.414 21.7039 18.0413 21.4274C17.8548 21.2894 17.7068 21.1253 17.6058 20.9444C17.5048 20.7635 17.4528 20.5695 17.4528 20.3735C17.4528 20.1776 17.5048 19.9836 17.6058 19.8027C17.7068 19.6218 17.8548 19.4576 18.0413 19.3196L27.8883 11.8977C30.4998 9.94903 34.0419 8.85425 37.7353 8.85425C41.4286 8.85425 44.9707 9.94903 47.5823 11.8977C50.1939 13.8465 51.661 16.4895 51.661 19.2454C51.661 22.0013 50.1939 24.6443 47.5823 26.5931L30.6932 39.1954C29.7678 39.8842 28.6695 40.4301 27.4612 40.802C26.2528 41.1738 24.9581 41.3643 23.6511 41.3626Z" fill="#A098AE"/>
</svg>
