<svg width="20" height="21" viewBox="0 0 20 21" fill="none" xmlns="http://www.w3.org/2000/svg">
<path d="M2.5 5.49996H4.16667M4.16667 5.49996H17.5M4.16667 5.49996V17.1666C4.16667 17.6087 4.34226 18.0326 4.65482 18.3451C4.96738 18.6577 5.39131 18.8333 5.83333 18.8333H14.1667C14.6087 18.8333 15.0326 18.6577 15.3452 18.3451C15.6577 18.0326 15.8333 17.6087 15.8333 17.1666V5.49996H4.16667ZM6.66667 5.49996V3.83329C6.66667 3.39127 6.84226 2.96734 7.15482 2.65478C7.46738 2.34222 7.89131 2.16663 8.33333 2.16663H11.6667C12.1087 2.16663 12.5326 2.34222 12.8452 2.65478C13.1577 2.96734 13.3333 3.39127 13.3333 3.83329V5.49996M8.33333 9.66663V14.6666M11.6667 9.66663V14.6666" stroke="#667085" stroke-width="1.66667" stroke-linecap="round" stroke-linejoin="round"/>
</svg>
